<svg xmlns="http://www.w3.org/2000/svg" viewBox="0 0 512 512" role="img" aria-label="Lex Suite Icon">
  <defs>
    <linearGradient id="g" x1="0%" y1="0%" x2="100%" y2="100%">
      <stop stop-color="#4f46e5" offset="0%" />
      <stop stop-color="#7c3aed" offset="100%" />
    </linearGradient>
  </defs>
  <rect width="512" height="512" rx="96" fill="#0b1220" />
  <rect x="48" y="48" width="416" height="416" rx="88" fill="url(#g)" opacity="0.9" />
  <path d="M256 120c-9.5 0-18.6 5.6-26.2 14.4-7.5 8.7-12.9 20-15.3 29.2h-68.5c-6.9 0-12.5 5.6-12.5 12.5s5.6 12.5 12.5 12.5h60c-2.7 12.6-3.5 24.5-2.6 34.5H146c-6.9 0-12.5 5.6-12.5 12.5S139.1 248 146 248h60.1c2.3 9.6 6.4 20.1 12.5 29.6 11.9 19.1 30.5 34.4 52.6 34.4s40.7-15.3 52.6-34.4c6.1-9.5 10.2-20 12.5-29.6H366c6.9 0 12.5-5.6 12.5-12.5S372.9 233 366 233h-57.4c.9-10 0-21.9-2.6-34.5h60c6.9 0 12.5-5.6 12.5-12.5s-5.6-12.5-12.5-12.5H298c-2.4-9.2-7.8-20.5-15.3-29.2-7.6-8.8-16.7-14.4-26.2-14.4Zm0 25c5.5 0 12 4.3 18.5 11.9 5.6 6.6 9.6 15 11.5 22.1h-60c1.9-7.1 5.9-15.5 11.5-22.1 6.5-7.6 13-11.9 18.5-11.9Zm0 64.4c5.7 11.1 8.9 23.4 9.6 35.6h-19.2c.7-12.2 3.9-24.5 9.6-35.6Zm-33.2 61.6h66.4c-2 6.5-4.9 13.1-8.9 19.3-8 12.8-21.2 23.2-28.3 23.2s-20.4-10.4-28.3-23.2c-4-6.2-6.9-12.8-8.9-19.3Z" fill="#fff"/>
</svg>
